<mxfile host="app.diagrams.net" agent="Mozilla/5.0 (Windows NT 10.0; Win64; x64) AppleWebKit/537.36 (KHTML, like Gecko) Chrome/131.0.0.0 Safari/537.36 Edg/131.0.0.0" version="25.0.3">
  <diagram name="Page-1" id="BjApkS79TwbXNeSLSTTN">
    <mxGraphModel dx="1283" dy="526" grid="1" gridSize="10" guides="1" tooltips="1" connect="1" arrows="1" fold="1" page="1" pageScale="1" pageWidth="1169" pageHeight="827" math="0" shadow="0">
      <root>
        <mxCell id="0" />
        <mxCell id="1" parent="0" />
        <mxCell id="v-0i3Sbv1FWppjtMG9sE-29" value="" style="group" parent="1" vertex="1" connectable="0">
          <mxGeometry x="64" y="10" width="1040" height="750" as="geometry" />
        </mxCell>
        <mxCell id="v-0i3Sbv1FWppjtMG9sE-2" value="Sistem (Portal Akademik)" style="swimlane;horizontal=0;whiteSpace=wrap;html=1;" parent="v-0i3Sbv1FWppjtMG9sE-29" vertex="1">
          <mxGeometry y="187.49999999999997" width="1040" height="187.49999999999997" as="geometry" />
        </mxCell>
        <mxCell id="5QpChB2qaHGC12MOCWOk-18" value="" style="edgeStyle=orthogonalEdgeStyle;rounded=0;orthogonalLoop=1;jettySize=auto;html=1;exitX=1;exitY=0.5;exitDx=0;exitDy=0;entryX=0;entryY=0.5;entryDx=0;entryDy=0;" parent="v-0i3Sbv1FWppjtMG9sE-2" source="TfXreTcqLr2SSL9LbqMF-8" target="TfXreTcqLr2SSL9LbqMF-10" edge="1">
          <mxGeometry relative="1" as="geometry">
            <mxPoint x="216" y="93.75000000000014" as="sourcePoint" />
            <mxPoint x="286" y="93.75000000000014" as="targetPoint" />
          </mxGeometry>
        </mxCell>
        <mxCell id="5QpChB2qaHGC12MOCWOk-22" value="Tidak Valid" style="text;html=1;align=center;verticalAlign=middle;whiteSpace=wrap;rounded=0;rotation=90;" parent="v-0i3Sbv1FWppjtMG9sE-2" vertex="1">
          <mxGeometry x="316" y="43.5" width="74" height="30" as="geometry" />
        </mxCell>
        <mxCell id="5QpChB2qaHGC12MOCWOk-25" value="Valid" style="text;html=1;align=center;verticalAlign=middle;whiteSpace=wrap;rounded=0;rotation=0;" parent="v-0i3Sbv1FWppjtMG9sE-2" vertex="1">
          <mxGeometry x="266" y="133.75" width="44" height="30" as="geometry" />
        </mxCell>
        <mxCell id="TfXreTcqLr2SSL9LbqMF-8" value="validasi data dan jadwal pengajuan" style="rounded=1;whiteSpace=wrap;html=1;" parent="v-0i3Sbv1FWppjtMG9sE-2" vertex="1">
          <mxGeometry x="96" y="63.75000000000003" width="120" height="60" as="geometry" />
        </mxCell>
        <mxCell id="TfXreTcqLr2SSL9LbqMF-10" value="" style="rhombus;whiteSpace=wrap;html=1;" parent="v-0i3Sbv1FWppjtMG9sE-2" vertex="1">
          <mxGeometry x="296" y="78.75000000000003" width="30" height="30" as="geometry" />
        </mxCell>
        <mxCell id="TfXreTcqLr2SSL9LbqMF-14" value="Status mahasiswa diubah menjadi Cuti Akademik" style="rounded=1;whiteSpace=wrap;html=1;" parent="v-0i3Sbv1FWppjtMG9sE-2" vertex="1">
          <mxGeometry x="426" y="73.50000000000003" width="120" height="60" as="geometry" />
        </mxCell>
        <mxCell id="TfXreTcqLr2SSL9LbqMF-19" value="&lt;font style=&quot;font-size: 8px;&quot;&gt;Valid?&lt;/font&gt;" style="text;html=1;align=center;verticalAlign=middle;whiteSpace=wrap;rounded=0;rotation=0;" parent="v-0i3Sbv1FWppjtMG9sE-2" vertex="1">
          <mxGeometry x="289" y="78.75" width="44" height="30" as="geometry" />
        </mxCell>
        <mxCell id="v-0i3Sbv1FWppjtMG9sE-3" value="Mahasiswa" style="swimlane;horizontal=0;whiteSpace=wrap;html=1;" parent="v-0i3Sbv1FWppjtMG9sE-29" vertex="1">
          <mxGeometry width="1040" height="187.49999999999997" as="geometry" />
        </mxCell>
        <mxCell id="5QpChB2qaHGC12MOCWOk-14" style="edgeStyle=orthogonalEdgeStyle;rounded=0;orthogonalLoop=1;jettySize=auto;html=1;entryX=0;entryY=0.5;entryDx=0;entryDy=0;" parent="v-0i3Sbv1FWppjtMG9sE-3" source="v-0i3Sbv1FWppjtMG9sE-5" target="TfXreTcqLr2SSL9LbqMF-1" edge="1">
          <mxGeometry relative="1" as="geometry">
            <mxPoint x="96" y="93.39999999999998" as="targetPoint" />
          </mxGeometry>
        </mxCell>
        <mxCell id="v-0i3Sbv1FWppjtMG9sE-5" value="" style="ellipse;whiteSpace=wrap;html=1;aspect=fixed;" parent="v-0i3Sbv1FWppjtMG9sE-3" vertex="1">
          <mxGeometry x="37.47747747747748" y="79.68749999999999" width="27.368421052631575" height="27.368421052631575" as="geometry" />
        </mxCell>
        <mxCell id="v-0i3Sbv1FWppjtMG9sE-41" value="" style="ellipse;whiteSpace=wrap;html=1;aspect=fixed;" parent="v-0i3Sbv1FWppjtMG9sE-3" vertex="1">
          <mxGeometry x="955.9974774774774" y="79.68749999999999" width="27.368421052631575" height="27.368421052631575" as="geometry" />
        </mxCell>
        <mxCell id="5QpChB2qaHGC12MOCWOk-38" value="" style="edgeStyle=orthogonalEdgeStyle;rounded=0;orthogonalLoop=1;jettySize=auto;html=1;entryX=0;entryY=0.5;entryDx=0;entryDy=0;" parent="v-0i3Sbv1FWppjtMG9sE-3" source="TfXreTcqLr2SSL9LbqMF-2" target="TfXreTcqLr2SSL9LbqMF-5" edge="1">
          <mxGeometry relative="1" as="geometry">
            <mxPoint x="371" y="93.39999999999998" as="sourcePoint" />
            <mxPoint x="426" y="94" as="targetPoint" />
          </mxGeometry>
        </mxCell>
        <mxCell id="5QpChB2qaHGC12MOCWOk-40" style="edgeStyle=orthogonalEdgeStyle;rounded=0;orthogonalLoop=1;jettySize=auto;html=1;entryX=0.5;entryY=0;entryDx=0;entryDy=0;exitX=1;exitY=0.5;exitDx=0;exitDy=0;" parent="v-0i3Sbv1FWppjtMG9sE-3" source="TfXreTcqLr2SSL9LbqMF-5" target="v-0i3Sbv1FWppjtMG9sE-41" edge="1">
          <mxGeometry relative="1" as="geometry">
            <Array as="points">
              <mxPoint x="516" y="95" />
              <mxPoint x="516" y="31" />
              <mxPoint x="970" y="31" />
            </Array>
            <mxPoint x="465.96212121212125" y="93.78787878787881" as="sourcePoint" />
          </mxGeometry>
        </mxCell>
        <mxCell id="5QpChB2qaHGC12MOCWOk-39" style="edgeStyle=orthogonalEdgeStyle;rounded=0;orthogonalLoop=1;jettySize=auto;html=1;entryX=0.5;entryY=0;entryDx=0;entryDy=0;exitX=0.5;exitY=0;exitDx=0;exitDy=0;" parent="v-0i3Sbv1FWppjtMG9sE-3" source="TfXreTcqLr2SSL9LbqMF-5" target="TfXreTcqLr2SSL9LbqMF-1" edge="1">
          <mxGeometry relative="1" as="geometry">
            <Array as="points">
              <mxPoint x="441" y="33" />
              <mxPoint x="156" y="33" />
            </Array>
            <mxPoint x="441.030303030303" y="68.780303030303" as="sourcePoint" />
            <mxPoint x="156" y="53.370000000000005" as="targetPoint" />
          </mxGeometry>
        </mxCell>
        <mxCell id="5QpChB2qaHGC12MOCWOk-57" style="edgeStyle=orthogonalEdgeStyle;rounded=0;orthogonalLoop=1;jettySize=auto;html=1;entryX=0;entryY=0.5;entryDx=0;entryDy=0;" parent="v-0i3Sbv1FWppjtMG9sE-3" source="5QpChB2qaHGC12MOCWOk-55" target="v-0i3Sbv1FWppjtMG9sE-41" edge="1">
          <mxGeometry relative="1" as="geometry" />
        </mxCell>
        <mxCell id="5QpChB2qaHGC12MOCWOk-55" value="" style="shape=mxgraph.bpmn.data;labelPosition=center;verticalLabelPosition=bottom;align=center;verticalAlign=top;size=6;html=1;bpmnTransferType=none;isCollection=1;" parent="v-0i3Sbv1FWppjtMG9sE-3" vertex="1">
          <mxGeometry x="776" y="63.75" width="40" height="60" as="geometry" />
        </mxCell>
        <mxCell id="5QpChB2qaHGC12MOCWOk-58" value="Surat Keterangan Cutri" style="text;html=1;align=center;verticalAlign=middle;whiteSpace=wrap;rounded=0;" parent="v-0i3Sbv1FWppjtMG9sE-3" vertex="1">
          <mxGeometry x="734" y="123.75" width="124" height="30" as="geometry" />
        </mxCell>
        <mxCell id="TfXreTcqLr2SSL9LbqMF-1" value="mengisi formulir dan melampirkan dokumen persyaratan" style="rounded=1;whiteSpace=wrap;html=1;" parent="v-0i3Sbv1FWppjtMG9sE-3" vertex="1">
          <mxGeometry x="96" y="63.75" width="120" height="60" as="geometry" />
        </mxCell>
        <mxCell id="TfXreTcqLr2SSL9LbqMF-2" value="Pengajuan cuti ditolak" style="rounded=1;whiteSpace=wrap;html=1;" parent="v-0i3Sbv1FWppjtMG9sE-3" vertex="1">
          <mxGeometry x="246" y="63.75" width="120" height="60" as="geometry" />
        </mxCell>
        <mxCell id="TfXreTcqLr2SSL9LbqMF-5" value="" style="rhombus;whiteSpace=wrap;html=1;" parent="v-0i3Sbv1FWppjtMG9sE-3" vertex="1">
          <mxGeometry x="426" y="79.69" width="30" height="30" as="geometry" />
        </mxCell>
        <mxCell id="TfXreTcqLr2SSL9LbqMF-6" value="Pengajuan cuti disetujui" style="rounded=1;whiteSpace=wrap;html=1;" parent="v-0i3Sbv1FWppjtMG9sE-3" vertex="1">
          <mxGeometry x="536" y="63.370000000000005" width="120" height="60" as="geometry" />
        </mxCell>
        <mxCell id="TfXreTcqLr2SSL9LbqMF-7" style="edgeStyle=orthogonalEdgeStyle;rounded=0;orthogonalLoop=1;jettySize=auto;html=1;entryX=0;entryY=0.5;entryDx=0;entryDy=0;entryPerimeter=0;" parent="v-0i3Sbv1FWppjtMG9sE-3" source="TfXreTcqLr2SSL9LbqMF-6" target="5QpChB2qaHGC12MOCWOk-55" edge="1">
          <mxGeometry relative="1" as="geometry" />
        </mxCell>
        <mxCell id="TfXreTcqLr2SSL9LbqMF-16" value="&lt;font style=&quot;font-size: 8px;&quot;&gt;Coba Lagi?&lt;/font&gt;" style="text;html=1;align=center;verticalAlign=middle;whiteSpace=wrap;rounded=0;" parent="v-0i3Sbv1FWppjtMG9sE-3" vertex="1">
          <mxGeometry x="401.5" y="109.69" width="79" height="17.06" as="geometry" />
        </mxCell>
        <mxCell id="7OEEQV7NuDaQ2OSt72wN-1" value="Ya" style="text;html=1;align=center;verticalAlign=middle;whiteSpace=wrap;rounded=0;" vertex="1" parent="v-0i3Sbv1FWppjtMG9sE-3">
          <mxGeometry x="386" y="10" width="60" height="30" as="geometry" />
        </mxCell>
        <mxCell id="7OEEQV7NuDaQ2OSt72wN-2" value="Tidak" style="text;html=1;align=center;verticalAlign=middle;whiteSpace=wrap;rounded=0;" vertex="1" parent="v-0i3Sbv1FWppjtMG9sE-3">
          <mxGeometry x="516" y="33.37" width="60" height="30" as="geometry" />
        </mxCell>
        <mxCell id="v-0i3Sbv1FWppjtMG9sE-4" value="Administrasi Akademik" style="swimlane;horizontal=0;whiteSpace=wrap;html=1;startSize=23;" parent="v-0i3Sbv1FWppjtMG9sE-29" vertex="1">
          <mxGeometry y="374.99999999999994" width="1040" height="187.49999999999997" as="geometry" />
        </mxCell>
        <mxCell id="5QpChB2qaHGC12MOCWOk-27" style="edgeStyle=orthogonalEdgeStyle;rounded=0;orthogonalLoop=1;jettySize=auto;html=1;exitX=1;exitY=0.5;exitDx=0;exitDy=0;entryX=0;entryY=0.5;entryDx=0;entryDy=0;" parent="v-0i3Sbv1FWppjtMG9sE-4" source="TfXreTcqLr2SSL9LbqMF-9" target="TfXreTcqLr2SSL9LbqMF-11" edge="1">
          <mxGeometry relative="1" as="geometry">
            <mxPoint x="216" y="93.75000000000006" as="sourcePoint" />
            <mxPoint x="286" y="93.75000000000006" as="targetPoint" />
          </mxGeometry>
        </mxCell>
        <mxCell id="5QpChB2qaHGC12MOCWOk-33" value="Tidak Valid" style="text;html=1;align=center;verticalAlign=middle;whiteSpace=wrap;rounded=0;rotation=90;" parent="v-0i3Sbv1FWppjtMG9sE-4" vertex="1">
          <mxGeometry x="348" y="38.75000000000003" width="74" height="30" as="geometry" />
        </mxCell>
        <mxCell id="5QpChB2qaHGC12MOCWOk-44" value="Valid" style="text;html=1;align=center;verticalAlign=middle;whiteSpace=wrap;rounded=0;rotation=0;" parent="v-0i3Sbv1FWppjtMG9sE-4" vertex="1">
          <mxGeometry x="266" y="146.00000000000003" width="44" height="30" as="geometry" />
        </mxCell>
        <mxCell id="TfXreTcqLr2SSL9LbqMF-9" value="mengevaluasi kelayakan cuti" style="rounded=1;whiteSpace=wrap;html=1;" parent="v-0i3Sbv1FWppjtMG9sE-4" vertex="1">
          <mxGeometry x="96" y="63.75000000000006" width="120" height="60" as="geometry" />
        </mxCell>
        <mxCell id="TfXreTcqLr2SSL9LbqMF-11" value="" style="rhombus;whiteSpace=wrap;html=1;" parent="v-0i3Sbv1FWppjtMG9sE-4" vertex="1">
          <mxGeometry x="296" y="78.75000000000003" width="30" height="30" as="geometry" />
        </mxCell>
        <mxCell id="TfXreTcqLr2SSL9LbqMF-21" value="&lt;font style=&quot;font-size: 8px;&quot;&gt;Valid?&lt;/font&gt;" style="text;html=1;align=center;verticalAlign=middle;whiteSpace=wrap;rounded=0;rotation=0;" parent="v-0i3Sbv1FWppjtMG9sE-4" vertex="1">
          <mxGeometry x="289" y="78.75000000000003" width="44" height="30" as="geometry" />
        </mxCell>
        <mxCell id="v-0i3Sbv1FWppjtMG9sE-27" value="&lt;div&gt;Dekan/Fakultas&lt;/div&gt;" style="swimlane;horizontal=0;whiteSpace=wrap;html=1;startSize=23;" parent="v-0i3Sbv1FWppjtMG9sE-29" vertex="1">
          <mxGeometry y="562.5" width="1040" height="187.49999999999997" as="geometry" />
        </mxCell>
        <mxCell id="5QpChB2qaHGC12MOCWOk-46" style="edgeStyle=orthogonalEdgeStyle;rounded=0;orthogonalLoop=1;jettySize=auto;html=1;entryX=0;entryY=0.5;entryDx=0;entryDy=0;" parent="v-0i3Sbv1FWppjtMG9sE-27" source="TfXreTcqLr2SSL9LbqMF-13" target="TfXreTcqLr2SSL9LbqMF-12" edge="1">
          <mxGeometry relative="1" as="geometry">
            <mxPoint x="216" y="93.55263157894728" as="sourcePoint" />
            <mxPoint x="286" y="93.5" as="targetPoint" />
          </mxGeometry>
        </mxCell>
        <mxCell id="5QpChB2qaHGC12MOCWOk-51" value="Tidak Disetujui" style="text;html=1;align=center;verticalAlign=middle;whiteSpace=wrap;rounded=0;rotation=0;" parent="v-0i3Sbv1FWppjtMG9sE-27" vertex="1">
          <mxGeometry x="316" y="8.5" width="90" height="30" as="geometry" />
        </mxCell>
        <mxCell id="5QpChB2qaHGC12MOCWOk-52" value="Disetujui" style="text;html=1;align=center;verticalAlign=middle;whiteSpace=wrap;rounded=0;rotation=0;" parent="v-0i3Sbv1FWppjtMG9sE-27" vertex="1">
          <mxGeometry x="410" y="68.5" width="76" height="30" as="geometry" />
        </mxCell>
        <mxCell id="TfXreTcqLr2SSL9LbqMF-12" value="" style="rhombus;whiteSpace=wrap;html=1;" parent="v-0i3Sbv1FWppjtMG9sE-27" vertex="1">
          <mxGeometry x="296" y="78.74999999999994" width="30" height="30" as="geometry" />
        </mxCell>
        <mxCell id="TfXreTcqLr2SSL9LbqMF-13" value="memberikan persetujuan akhir" style="rounded=1;whiteSpace=wrap;html=1;" parent="v-0i3Sbv1FWppjtMG9sE-27" vertex="1">
          <mxGeometry x="96" y="63.75" width="120" height="60" as="geometry" />
        </mxCell>
        <mxCell id="TfXreTcqLr2SSL9LbqMF-22" value="&lt;font style=&quot;font-size: 10px;&quot;&gt;Disetujui?&lt;/font&gt;" style="text;html=1;align=center;verticalAlign=middle;whiteSpace=wrap;rounded=0;rotation=0;" parent="v-0i3Sbv1FWppjtMG9sE-27" vertex="1">
          <mxGeometry x="289" y="98.49999999999994" width="44" height="30" as="geometry" />
        </mxCell>
        <mxCell id="5QpChB2qaHGC12MOCWOk-16" value="" style="edgeStyle=orthogonalEdgeStyle;rounded=0;orthogonalLoop=1;jettySize=auto;html=1;exitX=0.5;exitY=1;exitDx=0;exitDy=0;entryX=0.5;entryY=0;entryDx=0;entryDy=0;" parent="v-0i3Sbv1FWppjtMG9sE-29" source="TfXreTcqLr2SSL9LbqMF-1" target="TfXreTcqLr2SSL9LbqMF-8" edge="1">
          <mxGeometry relative="1" as="geometry">
            <mxPoint x="156" y="133.37" as="sourcePoint" />
            <mxPoint x="156" y="241.25" as="targetPoint" />
          </mxGeometry>
        </mxCell>
        <mxCell id="5QpChB2qaHGC12MOCWOk-24" style="edgeStyle=orthogonalEdgeStyle;rounded=0;orthogonalLoop=1;jettySize=auto;html=1;entryX=0.5;entryY=0;entryDx=0;entryDy=0;exitX=0.5;exitY=1;exitDx=0;exitDy=0;" parent="v-0i3Sbv1FWppjtMG9sE-29" source="TfXreTcqLr2SSL9LbqMF-10" target="TfXreTcqLr2SSL9LbqMF-9" edge="1">
          <mxGeometry relative="1" as="geometry">
            <Array as="points">
              <mxPoint x="311" y="351" />
              <mxPoint x="156" y="351" />
            </Array>
            <mxPoint x="311.0526315789473" y="306.1973684210527" as="sourcePoint" />
            <mxPoint x="156" y="428.75" as="targetPoint" />
          </mxGeometry>
        </mxCell>
        <mxCell id="5QpChB2qaHGC12MOCWOk-42" style="edgeStyle=orthogonalEdgeStyle;rounded=0;orthogonalLoop=1;jettySize=auto;html=1;exitX=0.5;exitY=1;exitDx=0;exitDy=0;entryX=0.5;entryY=0;entryDx=0;entryDy=0;" parent="v-0i3Sbv1FWppjtMG9sE-29" source="TfXreTcqLr2SSL9LbqMF-11" target="TfXreTcqLr2SSL9LbqMF-13" edge="1">
          <mxGeometry relative="1" as="geometry">
            <Array as="points">
              <mxPoint x="311" y="551" />
              <mxPoint x="156" y="551" />
              <mxPoint x="156" y="626" />
            </Array>
            <mxPoint x="311.0526315789473" y="493.6973684210526" as="sourcePoint" />
            <mxPoint x="156" y="616" as="targetPoint" />
          </mxGeometry>
        </mxCell>
        <mxCell id="5QpChB2qaHGC12MOCWOk-48" style="edgeStyle=orthogonalEdgeStyle;rounded=0;orthogonalLoop=1;jettySize=auto;html=1;exitX=1;exitY=0.5;exitDx=0;exitDy=0;entryX=0.5;entryY=1;entryDx=0;entryDy=0;" parent="v-0i3Sbv1FWppjtMG9sE-29" source="TfXreTcqLr2SSL9LbqMF-12" target="TfXreTcqLr2SSL9LbqMF-14" edge="1">
          <mxGeometry relative="1" as="geometry">
            <mxPoint x="335.9473684210527" y="656.0526315789473" as="sourcePoint" />
            <mxPoint x="482.0000000000002" y="321.2500000000001" as="targetPoint" />
          </mxGeometry>
        </mxCell>
        <mxCell id="5QpChB2qaHGC12MOCWOk-62" style="edgeStyle=orthogonalEdgeStyle;rounded=0;orthogonalLoop=1;jettySize=auto;html=1;entryX=0.551;entryY=1;entryDx=0;entryDy=0;entryPerimeter=0;exitX=1;exitY=0.5;exitDx=0;exitDy=0;" parent="v-0i3Sbv1FWppjtMG9sE-29" source="TfXreTcqLr2SSL9LbqMF-11" target="TfXreTcqLr2SSL9LbqMF-2" edge="1">
          <mxGeometry relative="1" as="geometry">
            <mxPoint x="326.75" y="479" as="sourcePoint" />
            <mxPoint x="312" y="133.37" as="targetPoint" />
            <Array as="points">
              <mxPoint x="367" y="469" />
              <mxPoint x="367" y="210" />
              <mxPoint x="312" y="210" />
            </Array>
          </mxGeometry>
        </mxCell>
        <mxCell id="5QpChB2qaHGC12MOCWOk-63" style="edgeStyle=orthogonalEdgeStyle;rounded=0;orthogonalLoop=1;jettySize=auto;html=1;entryX=0.544;entryY=0.986;entryDx=0;entryDy=0;entryPerimeter=0;" parent="v-0i3Sbv1FWppjtMG9sE-29" target="TfXreTcqLr2SSL9LbqMF-2" edge="1">
          <mxGeometry relative="1" as="geometry">
            <Array as="points">
              <mxPoint x="311" y="571" />
              <mxPoint x="366" y="571" />
              <mxPoint x="366" y="210" />
              <mxPoint x="311" y="210" />
            </Array>
            <mxPoint x="311" y="640" as="sourcePoint" />
            <mxPoint x="311" y="133.37" as="targetPoint" />
          </mxGeometry>
        </mxCell>
        <mxCell id="5QpChB2qaHGC12MOCWOk-61" style="edgeStyle=orthogonalEdgeStyle;rounded=0;orthogonalLoop=1;jettySize=auto;html=1;entryX=0.544;entryY=0.986;entryDx=0;entryDy=0;entryPerimeter=0;exitX=0.5;exitY=0;exitDx=0;exitDy=0;" parent="v-0i3Sbv1FWppjtMG9sE-29" source="TfXreTcqLr2SSL9LbqMF-10" target="TfXreTcqLr2SSL9LbqMF-2" edge="1">
          <mxGeometry relative="1" as="geometry">
            <mxPoint x="311.0526315789473" y="256.3026315789474" as="sourcePoint" />
            <mxPoint x="311" y="133.37" as="targetPoint" />
          </mxGeometry>
        </mxCell>
        <mxCell id="TfXreTcqLr2SSL9LbqMF-15" style="edgeStyle=orthogonalEdgeStyle;rounded=0;orthogonalLoop=1;jettySize=auto;html=1;entryX=0.5;entryY=1;entryDx=0;entryDy=0;" parent="v-0i3Sbv1FWppjtMG9sE-29" source="TfXreTcqLr2SSL9LbqMF-14" target="TfXreTcqLr2SSL9LbqMF-6" edge="1">
          <mxGeometry relative="1" as="geometry" />
        </mxCell>
      </root>
    </mxGraphModel>
  </diagram>
</mxfile>
